<?xml version="1.0" standalone="no"?>
<!DOCTYPE svg PUBLIC "-//W3C//DTD SVG 20010904//EN"
 "http://www.w3.org/TR/2001/REC-SVG-20010904/DTD/svg10.dtd">
<svg version="1.0" xmlns="http://www.w3.org/2000/svg"
 width="523.000000pt" height="523.000000pt" viewBox="0 0 523.000000 523.000000"
 preserveAspectRatio="xMidYMid meet">
<metadata>
Created by potrace 1.14, written by Peter Selinger 2001-2017
</metadata>
<g transform="translate(0.000000,523.000000) scale(0.100000,-0.100000)"
fill="#000000" stroke="none">
<path d="M0 2615 l0 -2615 2615 0 2615 0 0 2615 0 2615 -2615 0 -2615 0 0
-2615z m3978 158 l2 -1523 -314 0 -314 0 -32 -57 c-18 -32 -69 -94 -114 -138
-91 -90 -189 -147 -316 -186 -75 -23 -83 -23 -340 -18 -25 1 -81 1 -125 0 -44
-1 -107 6 -140 14 -70 18 -187 72 -248 114 -68 47 -159 144 -197 210 l-35 60
-312 1 -313 0 0 1518 c0 835 3 1522 7 1525 3 4 632 6 1397 5 l1391 -3 3 -1522z"/>
<path d="M1300 2775 l0 -1405 255 0 c140 0 255 2 255 4 0 3 -16 36 -36 75 -43
85 -74 225 -74 339 l0 82 38 0 37 0 2 -99 c2 -155 50 -305 133 -415 50 -66
136 -140 152 -130 6 4 8 3 5 -2 -3 -6 2 -15 12 -21 14 -9 9 9 -21 77 -47 108
-68 199 -68 306 0 73 14 181 24 192 3 2 19 1 36 -3 29 -6 32 -10 26 -39 -27
-144 -13 -272 44 -410 75 -180 238 -328 422 -382 36 -11 57 -13 72 -6 12 6 46
20 76 32 85 34 144 76 213 150 78 85 130 173 163 275 30 93 41 225 26 305 -11
60 -9 66 29 75 36 9 41 -6 47 -148 7 -171 -22 -279 -115 -434 -47 -77 -188
-219 -251 -253 -46 -24 -36 -24 47 -4 171 43 320 152 416 304 l28 44 -62 -56
c-57 -51 -183 -128 -210 -128 -20 0 78 118 130 155 144 107 225 282 237 513
l5 102 32 0 c31 0 33 -2 38 -44 8 -55 -7 -191 -29 -265 -8 -30 -29 -81 -45
-113 -16 -31 -29 -62 -29 -67 0 -7 93 -11 250 -13 l250 -3 0 1408 0 1407
-1280 0 -1280 0 0 -1405z m1505 826 c95 -32 139 -55 190 -102 65 -60 90 -124
90 -234 0 -82 -3 -96 -33 -158 -47 -95 -137 -164 -264 -202 l-43 -12 45 -8
c25 -4 81 -20 125 -36 108 -39 180 -97 225 -180 34 -62 35 -67 35 -174 0 -109
-1 -111 -39 -183 -92 -173 -281 -276 -516 -283 -41 -1 -222 -1 -402 0 -271 1
-328 3 -328 15 0 9 19 16 59 20 32 4 66 12 75 19 9 7 20 37 26 72 12 72 13
1287 1 1358 -11 65 -28 80 -101 85 -43 3 -60 8 -60 19 0 12 60 14 423 11 411
-4 424 -4 492 -27z m218 -2237 c3 -3 -6 -30 -21 -60 l-26 -54 -394 0 -393 0
-23 53 c-13 28 -22 55 -19 60 5 8 867 10 876 1z m-865 -79 c-3 -3 -9 2 -12 12
-6 14 -5 15 5 6 7 -7 10 -15 7 -18z"/>
<path d="M2307 3591 c-74 -15 -72 -4 -75 -367 l-3 -326 213 4 c235 5 265 11
344 71 146 110 149 457 4 553 -83 55 -134 67 -295 70 -82 2 -167 -1 -188 -5z"/>
<path d="M2230 2533 c0 -198 4 -352 11 -382 10 -47 13 -50 57 -66 61 -20 276
-30 360 -16 136 22 240 98 298 217 27 56 29 67 29 185 0 124 0 127 -35 195
-26 51 -50 80 -94 116 -83 67 -141 78 -414 81 l-212 2 0 -332z"/>
<path d="M3319 1323 c-13 -16 -12 -17 4 -4 16 13 21 21 13 21 -2 0 -10 -8 -17
-17z"/>
<path d="M1913 1224 c15 -17 27 -35 27 -41 0 -18 99 -112 155 -148 28 -18 72
-42 99 -54 55 -24 158 -53 165 -46 2 3 -1 5 -7 5 -6 0 -17 6 -24 13 -50 47
-128 107 -140 107 -7 0 -53 23 -103 51 -49 28 -95 52 -102 52 -7 0 -10 4 -8 8
3 4 -17 24 -43 45 -39 31 -42 33 -19 8z"/>
</g>
</svg>
